<?xml version="1.0" encoding="UTF-8"?>
<svg width="512" height="512" version="1.1" viewBox="0 0 402.37 402.37" xml:space="preserve" xmlns="http://www.w3.org/2000/svg">

	<path d="m201.19 101.67s28.82 82.72 80.04 108.33c0 0 28.87-52.47 17-115.67 1.78-0.25 3.6-0.37 5.46-0.37 22.85 0 41.37 18.52 41.37 41.37 0 8.02-2.27 15.49-6.23 21.84 18.77 3.92 32.87 20.56 32.87 40.49 0 15.44-8.47 28.91-21.01 36.01 8.11 7.55 13.18 18.32 13.18 30.28 0 22.85-18.53 41.38-41.38 41.38-0.72 0-1.45-0.03-2.16-0.06 1.39 4.15 2.16 8.6 2.16 13.22 0 22.85-18.52 41.38-41.37 41.38-5.37 0-10.5-1.04-15.2-2.89-1.77 21.22-19.54 37.9-41.22 37.9-8.73 0-16.84-2.72-23.52-7.33-6.67 4.61-14.77 7.33-23.51 7.33-21.67 0-39.45-16.68-41.22-37.9-4.7 1.85-9.82 2.89-15.19 2.89-22.85 0-41.38-18.53-41.38-41.38 0-4.62 0.77-9.07 2.17-13.22-0.72 0.03-1.44 0.06-2.17 0.06-22.86 0-41.38-18.53-41.38-41.38 0-11.96 5.07-22.73 13.18-30.28-12.54-7.1-21-20.57-21-36.01 0-19.93 14.09-36.57 32.86-40.49-3.95-6.35-6.23-13.82-6.23-21.84 0-22.85 18.53-41.37 41.38-41.37 1.85 0 3.66 0.12 5.45 0.37-11.87 63.2 17 115.67 17 115.67 51.23-25.61 80.05-108.33 80.05-108.33z" fill="#D64394"/>
	
		<path d="m208.45 356.98c-4.7 1.85-9.82 2.89-15.19 2.89-22.85 0-41.38-18.53-41.38-41.38 0-4.62 0.77-9.07 2.17-13.22-0.72 0.03-1.44 0.06-2.17 0.06-22.86 0-41.38-18.53-41.38-41.38 0-11.96 5.07-22.73 13.18-30.28-12.54-7.1-21-20.57-21-36.01 0-7.669 2.093-14.846 5.729-21.003-5.843-21.08-10.279-50.325-4.269-82.326-1.79-0.25-3.6-0.37-5.45-0.37-22.85 0-41.38 18.52-41.38 41.37 0 8.02 2.28 15.49 6.23 21.84-18.77 3.92-32.86 20.56-32.86 40.49 0 15.44 8.46 28.91 21 36.01-8.11 7.55-13.18 18.32-13.18 30.28 0 22.85 18.52 41.38 41.38 41.38 0.73 0 1.45-0.03 2.17-0.06-1.4 4.15-2.17 8.6-2.17 13.22 0 22.85 18.53 41.38 41.38 41.38 5.37 0 10.49-1.04 15.19-2.89 1.77 21.22 19.55 37.9 41.22 37.9 8.74 0 16.84-2.72 23.51-7.33 6.68 4.61 14.79 7.33 23.52 7.33 4.354 0 8.546-0.683 12.487-1.93-15.679-4.965-27.323-19.013-28.737-35.971z" fill="#BC3987"/>
	
	<path d="m170.24 112.72c5.005-44.121 62.786-56.894 86.373-19.262 0.6 0.962 1.187 1.918 1.756 2.88 33.015 55.183 24.095 114.4 24.095 114.4-56.919-6.295-112.59-73.923-112.59-73.923-0.611-9.048-0.438-17.043 0.369-24.098z" fill="#BC3987"/>
	<path d="m319.31 152.5c-1.355 0-2.727-0.367-3.961-1.137-3.515-2.192-4.587-6.818-2.395-10.333 1.083-1.737 1.61-3.602 1.61-5.701 0-2.656-0.974-5.215-2.743-7.206-2.751-3.097-2.47-7.837 0.627-10.588s7.838-2.469 10.588 0.627c4.209 4.739 6.528 10.836 6.528 17.167 0 4.919-1.306 9.508-3.882 13.638-1.422 2.281-3.869 3.533-6.372 3.533z" fill="#fff"/>
	<path d="m339.36 221.15c-2.614 0-5.153-1.369-6.533-3.806-2.041-3.604-0.773-8.181 2.831-10.222 3.416-1.934 5.537-5.562 5.537-9.469 0-5.121-3.619-9.593-8.604-10.634-4.055-0.847-6.655-4.82-5.809-8.875 0.847-4.055 4.824-6.653 8.875-5.809 11.9 2.485 20.538 13.133 20.538 25.318 0 9.3-5.038 17.93-13.146 22.521-1.168 0.662-2.438 0.976-3.689 0.976z" fill="#fff"/>
	<path d="m322.49 289.83c-4.142 0-7.5-3.358-7.5-7.5s3.358-7.5 7.5-7.5c6 0 10.88-4.881 10.88-10.88 0-3.097-1.197-5.848-3.462-7.956-3.032-2.822-3.202-7.568-0.38-10.6 2.823-3.032 7.569-3.202 10.6-0.38 5.315 4.947 8.242 11.672 8.242 18.936 0 14.27-11.61 25.88-25.88 25.88z" fill="#fff"/>
	<path d="m284.97 343.96c-3.46 0-6.571-2.408-7.326-5.928-0.869-4.05 1.71-8.038 5.76-8.906 4.976-1.068 8.587-5.542 8.587-10.64 0-1.194-0.196-2.383-0.581-3.536l-1.573-4.696c-1.315-3.928 0.802-8.178 4.73-9.494 3.929-1.315 8.178 0.802 9.494 4.73l1.573 4.697c0.901 2.691 1.357 5.482 1.357 8.298 0 12.122-8.597 22.765-20.441 25.306-0.53 0.114-1.059 0.169-1.58 0.169z" fill="#fff"/>
	<path d="m224.7 379.38c-4.142 0-7.5-3.358-7.5-7.5s3.358-7.5 7.5-7.5c5.606 0 10.361-4.364 10.826-9.935 0.344-4.128 3.971-7.198 8.097-6.851 4.128 0.344 7.195 3.97 6.851 8.097-1.108 13.284-12.429 23.689-25.774 23.689z" fill="#fff"/>
	<path d="m201.19 101.67s-28.82 82.72-80.05 108.33c0 0-28.87-52.47-17-115.67 0.2-1.1 0.42-2.2 0.65-3.31 8.42-40.21 59.22-50.09 82.58-19.95 1.91 2.44 3.62 5.15 5.12 8.12 3.2 6.34 6.13 13.78 8.7 22.48z" fill="#90BC42"/>
	<path d="m201.19 101.67s-28.82 82.72-80.05 108.33c0 0 6.05-53.54 18.05-101.54s40-35 40-35l8.18-2.39c1.91 2.44 3.62 5.15 5.12 8.12 3.2 6.34 6.13 13.78 8.7 22.48z" fill="#9AD14B"/>
	<path d="m209.88 79.186c19.97-39.66 78.6-31.64 87.7 11.83 0.23 1.11 0.45 2.21 0.65 3.31 11.87 63.2-17 115.67-17 115.67-51.22-25.61-80.04-108.33-80.04-108.33 2.56-8.7 5.49-16.14 8.69-22.48z" fill="#9AD14B"/>
	<path d="m139.19 173.96c-1.826 0-3.657-0.663-5.102-2.004-3.035-2.819-3.211-7.564-0.393-10.6 5.564-5.992 14.669-20.243 25.64-40.128 2.001-3.626 6.563-4.946 10.19-2.944 3.626 2.001 4.945 6.563 2.944 10.19-11.878 21.531-21.225 36.028-27.781 43.089-1.478 1.591-3.486 2.397-5.498 2.397z" fill="#fff"/>
	<path d="m281.26 118.84c-3.786 0-7.039-2.858-7.449-6.708-1.181-11.104-4.57-19.858-4.604-19.946-1.509-3.857 0.394-8.208 4.251-9.717 3.859-1.508 8.208 0.395 9.717 4.251 0.169 0.432 4.159 10.739 5.551 23.826 0.438 4.119-2.546 7.813-6.665 8.251-0.268 0.029-0.536 0.043-0.801 0.043z" fill="#fff"/>
	<circle cx="175.58" cy="107.46" r="7.5" fill="#fff"/>
	<circle cx="244.73" cy="333.54" r="7.5" fill="#fff"/>
	<path d="m379.2 197.66c0-19.807-12.092-37.466-29.802-45.001 2.086-5.502 3.168-11.366 3.168-17.324 0-26.78-21.652-48.588-48.369-48.863-5.726-21.525-23.331-37.088-45.64-40.008-19.639-2.57-38.261 5.346-49.869 20.552v-59.511c0-4.142-3.358-7.5-7.5-7.5s-7.5 3.358-7.5 7.5v59.51c-11.609-15.206-30.235-23.12-49.869-20.551-22.309 2.92-39.913 18.483-45.64 40.008-26.716 0.275-48.368 22.083-48.368 48.863 0 5.958 1.082 11.822 3.168 17.324-17.71 7.536-29.802 25.194-29.802 45.001 0 14.504 6.475 28.14 17.34 37.334-6.117 8.333-9.512 18.5-9.512 28.956 0 24.537 18.173 44.909 41.768 48.36-0.261 2.046-0.392 4.11-0.392 6.182 0 26.95 21.925 48.875 48.875 48.875 3.143 0 6.254-0.299 9.31-0.892 5.751 20.718 24.952 35.902 47.108 35.902 8.297 0 16.333-2.068 23.51-6.018 7.186 3.95 15.223 6.018 23.517 6.018 22.156 0 41.357-15.185 47.108-35.902 3.056 0.593 6.167 0.892 9.31 0.892 26.95 0 48.875-21.925 48.875-48.875 0-2.072-0.131-4.136-0.392-6.182 23.594-3.451 41.768-23.823 41.768-48.36 0-10.456-3.395-20.624-9.512-28.956 10.867-9.194 17.342-22.83 17.342-37.334zm-122.59-136.32c13.469 1.763 29.376 10.889 33.629 31.215 10.07 48.131-5.258 90.833-12.324 106.98-39.435-24.777-64.102-85.653-68.819-98.093 1.966-6.313 4.208-12.088 6.68-17.232 3.455-2.271 13.429-7.94 22.306-4.444 9.758 3.841 16.812 18.061 20.399 41.122 0.576 3.703 3.768 6.348 7.401 6.348 0.383 0 0.771-0.029 1.162-0.09 4.093-0.636 6.895-4.471 6.258-8.563-4.516-29.031-14.517-46.787-29.726-52.773-2.463-0.97-4.918-1.565-7.33-1.878 6.848-2.804 14.076-3.415 20.364-2.593zm-144.47 31.215c4.252-20.327 20.16-29.453 33.629-31.216 1.689-0.221 3.444-0.339 5.243-0.339 4.9 0 10.112 0.88 15.12 2.93-2.411 0.313-4.866 0.909-7.329 1.879-15.209 5.986-25.21 23.742-29.727 52.773-0.637 4.093 2.165 7.927 6.258 8.563 0.391 0.061 0.779 0.09 1.162 0.09 3.633 0 6.826-2.646 7.401-6.348 3.58-23.011 10.613-37.222 20.339-41.098 8.901-3.545 18.884 2.128 22.367 4.421 2.472 5.146 4.714 10.922 6.679 17.234-4.707 12.436-29.326 73.305-68.833 98.099-7.076-16.107-22.412-58.697-12.309-106.99zm233.45 146.61c6.957 6.478 10.789 15.28 10.789 24.786 0 18.679-15.197 33.875-33.876 33.875-0.609 0-1.219-0.02-1.818-0.047-2.474-0.121-4.843 0.998-6.334 2.974s-1.912 4.561-1.123 6.907c1.178 3.506 1.776 7.151 1.776 10.833 0 18.679-15.196 33.875-33.875 33.875-4.272 0-8.46-0.797-12.448-2.369-2.206-0.871-4.695-0.644-6.71 0.607-2.015 1.252-3.318 3.384-3.515 5.749-1.446 17.396-16.269 31.023-33.745 31.023-6.917 0-13.577-2.074-19.257-5.997-2.567-1.772-5.963-1.771-8.529 3e-3 -5.667 3.921-12.321 5.994-19.241 5.994-17.477 0-32.299-13.627-33.745-31.023-0.196-2.364-1.5-4.496-3.515-5.749-2.015-1.252-4.502-1.479-6.71-0.607-3.988 1.572-8.176 2.369-12.448 2.369-18.679 0-33.875-15.196-33.875-33.875 0-3.682 0.598-7.327 1.776-10.833 0.789-2.347 0.368-4.931-1.123-6.907-1.492-1.976-3.864-3.095-6.334-2.974-0.6 0.028-1.209 0.047-1.818 0.047-18.679 0-33.876-15.196-33.876-33.875 0-9.505 3.832-18.308 10.789-24.786 1.749-1.628 2.617-3.993 2.338-6.366-0.28-2.374-1.673-4.472-3.753-5.649-10.61-6.009-17.202-17.309-17.202-29.49 0-15.955 11.313-29.897 26.899-33.151 2.398-0.501 4.401-2.142 5.364-4.395 0.962-2.253 0.764-4.834-0.532-6.914-3.334-5.35-5.097-11.528-5.097-17.866 0-17.558 13.428-32.036 30.554-33.711-8.295 61.062 18.008 109.82 19.204 112 1.362 2.476 3.925 3.887 6.577 3.887 1.128 0 2.273-0.256 3.349-0.793 38.888-19.444 64.951-68.509 76.692-95.025 11.742 26.516 37.804 75.58 76.692 95.025 1.075 0.538 2.22 0.793 3.349 0.793 2.652 0 5.215-1.412 6.577-3.887 1.196-2.175 27.499-50.933 19.204-112 17.126 1.674 30.555 16.152 30.555 33.711 0 6.338-1.762 12.516-5.097 17.866-1.296 2.08-1.494 4.661-0.532 6.914 0.963 2.253 2.965 3.894 5.364 4.395 15.586 3.254 26.899 17.197 26.899 33.151 0 12.181-6.591 23.48-17.202 29.49-2.08 1.177-3.473 3.275-3.753 5.649-0.281 2.373 0.587 4.737 2.336 6.366z" fill="#333"/>
</svg>